# xmcd
#
# Track frame offsets:
# 150
# 11721
# 21383
# 62576
# 83934
# 100920
# 117288
# 136289
#
# Disc length: 1940 seconds
#
# Revision: 0
# Processed by: cddbd v1.5.2PL0 Copyright (c) Steve Scherf et al.
# Submitted via: Audion 3.0.2 (http://www.panic.com/audion/)
#
DISCID=65079208
DTITLE=Timothy Renner - harvest banjo e.p.
DYEAR=1900
DGENRE=
TTITLE0=Nightingale
TTITLE1=Swet Nora Lee/June Apple
TTITLE2=Little Matty Groves
TTITLE3=The Two Magicians
TTITLE4=Cold Rain and Snow
TTITLE5=The Three Dead Boys
TTITLE6=Tom Dula
TTITLE7=Curtains of the Night
EXTD=
EXTT0=
EXTT1=
EXTT2=
EXTT3=
EXTT4=
EXTT5=
EXTT6=
EXTT7=
PLAYORDER=
